<?xml version="1.0" standalone="no"?>
<!DOCTYPE svg PUBLIC "-//W3C//DTD SVG 20010904//EN"
 "http://www.w3.org/TR/2001/REC-SVG-20010904/DTD/svg10.dtd">
<svg version="1.0" xmlns="http://www.w3.org/2000/svg"
 width="700.000000pt" height="700.000000pt" viewBox="0 0 700.000000 700.000000"
 preserveAspectRatio="xMidYMid meet">
<metadata>
Created by potrace 1.14, written by Peter Selinger 2001-2017
</metadata>
<g transform="translate(0.000000,700.000000) scale(0.100000,-0.100000)"
fill="#000000" stroke="none">
<path d="M3278 6995 c-2 -1 -42 -5 -89 -9 -47 -4 -95 -8 -105 -10 -10 -2 -41
-7 -69 -10 -27 -4 -72 -11 -100 -16 -27 -5 -61 -12 -75 -14 -300 -55 -624
-166 -912 -313 l-148 -75 0 -3049 0 -3048 183 -90 c357 -176 731 -289 1117
-336 220 -27 631 -27 849 1 167 21 545 102 582 124 9 6 3 20 -26 57 -22 26
-42 50 -45 53 -4 3 -28 32 -55 65 -26 32 -53 64 -59 71 -6 6 -27 31 -47 55
-143 173 -207 250 -243 293 -39 47 -67 80 -83 101 -5 6 -44 53 -88 105 -44 52
-87 104 -97 115 -38 46 -334 402 -349 420 -10 11 -100 119 -200 240 -101 121
-191 229 -200 240 -10 11 -158 189 -329 395 -171 206 -319 384 -328 395 -10
11 -62 74 -117 140 -55 66 -102 122 -105 125 -3 3 -22 26 -43 52 -21 26 -43
53 -50 60 -7 7 -31 36 -55 64 l-42 52 0 252 0 252 68 81 c37 45 76 93 87 106
11 14 36 43 55 65 20 23 67 79 105 126 39 47 74 90 80 96 5 6 26 30 45 54 19
24 51 62 70 85 56 66 113 134 180 215 34 41 71 86 83 100 13 14 65 77 117 140
52 63 99 120 105 126 5 6 24 28 42 50 27 33 782 941 831 999 142 168 698 839
700 845 2 6 -174 59 -253 74 -28 6 -53 11 -92 20 -10 2 -38 7 -63 11 -25 4
-52 9 -61 10 -31 6 -114 18 -222 31 -39 5 -544 13 -549 9z"/>
<path d="M5391 6246 c-98 -120 -116 -140 -164 -196 -12 -14 -53 -63 -92 -110
-38 -47 -72 -87 -75 -90 -3 -3 -50 -59 -105 -125 -55 -66 -108 -129 -118 -140
-10 -11 -44 -51 -75 -90 -31 -38 -59 -72 -62 -75 -3 -3 -50 -59 -105 -125 -55
-66 -102 -122 -106 -125 -3 -3 -50 -59 -105 -125 -54 -66 -103 -125 -109 -131
-5 -6 -28 -33 -51 -60 -22 -27 -101 -121 -175 -209 -73 -88 -141 -169 -150
-180 -9 -11 -36 -42 -59 -70 -49 -59 -60 -72 -120 -145 -25 -30 -48 -57 -51
-60 -3 -3 -75 -88 -160 -190 -84 -102 -156 -187 -159 -190 -25 -23 -250 -301
-250 -309 0 -5 6 -16 13 -23 6 -7 38 -44 69 -83 31 -38 65 -79 75 -90 10 -11
38 -45 63 -76 25 -31 64 -78 87 -105 23 -27 80 -96 128 -154 48 -58 97 -116
108 -130 12 -14 51 -60 86 -102 35 -43 66 -78 70 -78 8 0 15 16 101 235 39 99
75 189 80 200 5 11 23 56 41 100 17 44 37 94 44 110 7 17 61 152 119 300 59
149 111 279 116 290 5 11 122 304 261 650 138 347 253 632 255 634 3 3 89 -9
149 -22 50 -11 171 -31 178 -29 16 4 3 -33 -104 -298 -61 -151 -144 -358 -185
-460 -41 -102 -78 -194 -84 -205 -5 -11 -82 -202 -170 -425 -89 -223 -168
-418 -175 -435 -7 -16 -27 -66 -44 -110 -18 -44 -36 -89 -41 -100 -5 -11 -49
-121 -99 -245 -49 -124 -113 -283 -142 -354 -41 -100 -50 -132 -42 -146 10
-16 520 -629 532 -640 3 -3 24 -27 46 -55 21 -27 42 -52 45 -55 3 -3 118 -140
255 -305 137 -165 256 -308 265 -317 8 -9 76 -91 150 -182 74 -91 139 -165
144 -165 8 -1 152 104 225 164 121 99 298 270 397 384 22 25 55 63 75 85 144
164 351 486 463 721 110 231 219 541 262 750 61 295 79 463 79 760 0 297 -12
432 -61 680 -111 562 -347 1065 -718 1529 -85 106 -336 364 -445 457 -35 29
-69 59 -75 64 -14 14 -194 145 -199 145 -1 0 -49 -56 -106 -124z m480 -1507
c74 -89 139 -167 144 -173 6 -6 129 -155 275 -331 145 -176 267 -322 270 -325
4 -4 65 -77 165 -199 11 -14 35 -42 54 -63 33 -38 34 -39 35 -144 l1 -105 -38
-47 c-91 -110 -351 -422 -418 -502 -20 -25 -133 -160 -249 -300 -116 -140
-224 -269 -238 -286 -29 -33 -87 -103 -120 -143 l-19 -25 -251 -1 c-138 0
-258 2 -266 5 -11 4 -8 13 17 41 18 20 78 92 134 160 55 68 114 139 130 158
15 19 97 118 181 220 85 102 215 260 290 351 75 91 177 215 227 275 50 61 107
130 127 155 l37 46 -47 55 c-64 75 -551 659 -694 830 -20 24 -46 55 -58 69
-12 14 -39 45 -59 70 -20 25 -38 47 -41 50 -16 16 -260 311 -260 315 0 3 121
5 269 5 l268 0 134 -161z"/>
<path d="M608 5478 c-125 -189 -242 -401 -313 -568 -15 -36 -35 -83 -45 -105
-45 -103 -144 -424 -165 -536 -3 -13 -11 -58 -20 -99 -8 -41 -17 -88 -19 -105
-2 -16 -8 -50 -12 -75 -21 -132 -29 -273 -29 -495 1 -191 8 -339 19 -402 2
-10 7 -43 10 -73 7 -62 11 -84 31 -190 89 -466 268 -896 547 -1313 43 -64 80
-117 81 -117 1 0 2 943 2 2095 0 1152 -3 2095 -6 2095 -4 0 -40 -51 -81 -112z"/>
</g>
</svg>
