<svg width="96" height="96" viewBox="0 0 96 96" fill="none"
   xmlns="http://www.w3.org/2000/svg">
   <style>
	.st0{fill:#2c1c17;}
	.st1{fill:#FF5722;}
   </style>
   <path class="st0" d="M28.8,0h38.4C83.1,0,96,12.9,96,28.8v38.4C96,83.1,83.1,96,67.2,96H28.8C12.9,96,0,83.1,0,67.2V28.8
	C0,12.9,12.9,0,28.8,0z"/>
   <g>
      <path class="st1" d="M86.4,48c0-13.1-6.6-24.6-16.5-31.5L43.7,47.8v0.3l7.7,9.3l11.2-27.8l3.7,0.6L54.1,60.5l15.8,19C79.8,72.6,86.4,61.1,86.4,48z M66.6,63.4l12.8-15.5L66.6,32.5h5.9l11.8,14.2V49L72.5,63.2h-5.9V63.4z"/>
      <path class="st1" d="M9.6,48c0,8.6,2.9,16.6,7.7,23V25C12.5,31.4,9.6,39.4,9.6,48z"/>
      <path class="st1" d="M31,45.3l28.2-33.9c-3.5-1.1-7.4-1.8-11.2-1.8c-6.9,0-13.3,1.8-18.9,5v66.9c5.6,3.2,12,5,18.9,5c4,0,7.7-0.6,11.2-1.8L31,50.7V45.3z"/>
   </g>
</svg>