<svg width="96" height="96" viewBox="0 0 96 96" fill="none" xmlns="http://www.w3.org/2000/svg">
   <style>
      path {
         fill: #ff5722;
      }

      @media (prefers-color-scheme: dark) {
         path {
            fill: #ff0000;
         }
      }
   </style>
   <path d="M96 48c0-16.322-8.163-30.718-20.611-39.39L42.54 47.811v.323l9.603 11.534 13.905-34.764 4.668.857-15.239 37.858L75.339 87.427C87.816 78.759 96 64.344 96 48zM71.262 67.255l15.947-19.309-16.001-19.147h7.476l14.764 17.775v2.849L78.604 67.255h-7.342zM0 48c0 10.818 3.573 20.777 9.544 28.856V19.144C3.573 27.223 0 37.182 0 48z" />
   <path d="M26.76 44.523 62.078 2.122C57.663.783 52.853 0 48 0c-8.577 0-16.611 2.277-23.579 6.218v83.564C31.389 93.723 39.423 96 48 96c4.907 0 9.639-.744 14.097-2.112L26.76 51.476v-6.952z" />
</svg>