<svg xmlns="http://www.w3.org/2000/svg" xml:space="preserve" id="Layer_1_1_" x="0" y="0" style="enable-background:new 0 0 1000 1000" version="1.1" viewBox="0 0 1000 1000">
   <rect width="1000" height="1000" rx="150" ry="150" fill="#212121"></rect>
   <g transform="matrix(0.9,0,0,0.9,50,50)">
      <style>
         path {
            fill: #FF5722;
         }
      </style>
      <path d="M1000 500c0-170.018-85.033-319.984-214.703-410.317L443.123 498.036v3.36l100.033 120.146 144.84-362.124 48.621 8.929-158.744 394.351L784.785 910.7C914.753 820.406 1000 670.249 1000 500zM742.316 700.576l166.115-201.133-166.675-199.45h77.873l153.793 185.161v29.68L818.794 700.576h-76.478zM0 500c0 112.684 37.223 216.422 99.421 300.583V199.417C37.223 283.578 0 387.316 0 500z" class="st0"></path>
      <path d="M278.751 463.784 646.645 22.106C600.652 8.155 550.55 0 500 0c-89.347 0-173.03 23.715-245.616 64.772v870.456C326.97 976.285 410.653 1000 500 1000c51.114 0 100.402-7.753 146.845-22.003L278.751 536.204v-72.42z" class="st0"></path>
   </g>
</svg>