<?xml version="1.0" standalone="no"?>
<!DOCTYPE svg PUBLIC "-//W3C//DTD SVG 20010904//EN"
 "http://www.w3.org/TR/2001/REC-SVG-20010904/DTD/svg10.dtd">
<svg version="1.0"
  xmlns="http://www.w3.org/2000/svg" width="700.000000pt" height="700.000000pt" viewBox="0 0 700.000000 700.000000" preserveAspectRatio="xMidYMid meet">
  <metadata>
Created by potrace 1.14, written by Peter Selinger 2001-2017
  </metadata>
  <g transform="translate(0.000000,700.000000) scale(0.100000,-0.100000)" fill="#000000" stroke="none">
    <path d="M1900 6988 c-1001 -94 -1797 -898 -1889 -1908 -15 -157 -15 -3003 0
-3160 23 -256 93 -510 203 -735 326 -667 965 -1107 1706 -1174 157 -15 3003
-15 3160 0 1020 93 1816 889 1909 1909 15 157 15 3003 0 3160 -93 1020 -889
1816 -1909 1909 -143 13 -3041 12 -3180 -1z m1780 -698 c63 -5 162 -17 220
-26 101 -15 372 -79 398 -93 8 -5 -324 -411 -1013 -1239 l-1025 -1233 0 -199
0 -199 1026 -1238 1026 -1237 -38 -13 c-75 -27 -230 -64 -354 -86 -172 -30
-641 -32 -820 -4 -321 50 -674 167 -916 302 l-64 36 2 2437 3 2437 80 42 c454
239 995 354 1475 313z m1504 -560 c507 -383 871 -931 1027 -1543 147 -583 103
-1200 -126 -1752 -98 -237 -251 -494 -413 -695 -137 -170 -376 -394 -540 -509
-33 -23 -34 -23 -51 -5 -10 11 -262 314 -561 674 -299 360 -550 663 -558 672
-13 16 29 126 423 1104 241 597 439 1094 442 1104 3 12 -2 20 -14 23 -43 12
-244 40 -249 34 -3 -3 -188 -457 -410 -1008 -222 -551 -405 -1003 -406 -1005
-7 -7 -552 662 -552 678 -1 17 1889 2288 1903 2288 3 0 42 -27 85 -60z m-3924
-2231 c0 -951 -4 -1658 -9 -1655 -5 3 -38 50 -74 103 -603 902 -632 2049 -76
2986 60 101 146 227 155 227 2 0 4 -747 4 -1661z"/>
    <path d="M4866 4618 c4 -7 207 -252 451 -545 243 -293 448 -541 454 -551 11
-17 -36 -78 -436 -563 -247 -299 -453 -550 -458 -556 -7 -10 34 -13 201 -13
l210 0 428 516 429 516 3 86 2 87 -428 515 -429 515 -217 3 c-170 2 -216 0
-210 -10z"/>
  </g>
</svg>