<?xml version="1.0" standalone="no"?>
<!DOCTYPE svg PUBLIC "-//W3C//DTD SVG 20010904//EN"
 "http://www.w3.org/TR/2001/REC-SVG-20010904/DTD/svg10.dtd">
<svg version="1.0" xmlns="http://www.w3.org/2000/svg"
 width="700.000000pt" height="700.000000pt" viewBox="0 0 700.000000 700.000000"
 preserveAspectRatio="xMidYMid meet">
<metadata>
Created by potrace 1.14, written by Peter Selinger 2001-2017
</metadata>
<g transform="translate(0.000000,700.000000) scale(0.100000,-0.100000)"
fill="#000000" stroke="none">
<path d="M1900 6988 c-1002 -94 -1797 -898 -1889 -1908 -15 -157 -15 -3003 0
-3160 23 -256 93 -510 203 -735 326 -667 965 -1107 1706 -1174 157 -15 3003
-15 3160 0 514 46 989 276 1341 646 326 344 525 785 568 1263 15 157 15 3003
0 3160 -93 1020 -889 1816 -1909 1909 -143 13 -3041 12 -3180 -1z m1780 -698
c63 -5 162 -17 220 -26 101 -15 372 -79 398 -93 8 -5 -329 -417 -1013 -1239
l-1025 -1232 0 -200 0 -200 1026 -1237 1027 -1238 -74 -23 c-108 -35 -330 -79
-464 -92 -153 -16 -543 -8 -685 14 -305 48 -655 164 -898 297 l-72 40 2 2437
3 2437 80 42 c454 239 995 354 1475 313z m1504 -560 c349 -264 628 -601 821
-994 132 -269 203 -485 250 -763 55 -318 55 -628 0 -946 -47 -278 -118 -494
-250 -763 -192 -390 -472 -730 -813 -987 -79 -60 -95 -68 -106 -56 -8 8 -260
311 -561 674 -301 363 -555 668 -563 677 -13 16 29 125 427 1113 242 602 441
1099 441 1104 0 5 -8 12 -17 15 -39 11 -244 38 -249 33 -4 -3 -188 -457 -410
-1008 -222 -551 -405 -1003 -406 -1005 -7 -6 -552 663 -552 678 -1 16 1890
2288 1903 2288 4 0 42 -27 85 -60z m-3924 -2231 c0 -936 -4 -1658 -9 -1655
-15 9 -139 201 -197 304 -253 451 -381 1012 -345 1515 33 473 160 884 394
1272 60 100 145 225 153 225 2 0 4 -747 4 -1661z"/>
<path d="M4866 4618 c5 -7 207 -252 451 -545 243 -293 448 -541 454 -552 11
-16 -39 -81 -437 -561 -247 -299 -453 -549 -457 -557 -7 -11 30 -13 202 -13
l209 0 429 516 428 516 3 86 2 87 -428 515 -428 515 -218 3 c-172 2 -216 0
-210 -10z"/>
</g>
</svg>
